<svg width="168" height="168" viewBox="0 0 168 168" fill="none" xmlns="http://www.w3.org/2000/svg">
<rect width="168" height="168" fill="white"/>
<path d="M17.6934 81.8779C12.897 84.9755 13.7391 88.4739 13.849 91.7901C13.7025 91.6807 6.30664 79.0719 30.3616 76.3023C39.9908 67.447 47.643 65.1512 53.0618 65.1512C58.8101 65.1512 61.9954 67.775 62.1785 67.9572C62.1053 68.2487 58.6636 73.8607 32.8879 77.0676C29.1167 77.7236 26.1144 78.4888 23.6613 79.2541C24.357 79.2905 25.3822 79.327 26.7002 79.327C33.7666 79.327 48.9611 78.2702 63.8261 70.2166C65.1442 70.5081 66.7918 70.6174 68.5492 70.6174C73.492 70.6174 79.0572 69.7428 79.0572 69.7428C79.0572 69.7428 76.7872 72.2573 67.4142 72.2573C66.4256 72.2573 65.3638 72.2209 64.2288 72.1844C51.524 80.7847 34.9016 82.2059 25.1991 82.2059C21.4645 82.2059 18.7551 81.9872 17.6934 81.8779ZM164 108.007C132.22 125.316 110.508 97.6572 109.593 97.0741C101.501 96.1631 63.0206 123.13 42.7368 112.525C41.6384 112.052 34.1693 107.496 28.7872 101.119C38.4531 101.374 47.7162 101.629 56.2471 101.848C57.0526 102.504 57.6018 102.905 57.7483 102.978C68.1098 111.177 81.3272 107.351 91.3593 101.921C91.3227 101.921 91.286 101.921 91.2494 101.921C91.6888 101.702 92.0915 101.447 92.4943 101.228C73.1625 100.828 40.1007 100.026 4 98.9326C7.99085 98.386 12.0549 97.9487 16.119 97.6207C15.5332 96.2724 15.1304 94.7054 14.984 92.9926C14.5812 87.6357 16.9611 83.1169 20.2929 82.8618C20.4027 82.8618 20.476 82.8618 20.5858 82.8618C23.8078 82.8618 26.6636 86.834 27.0664 92.0087C29.1167 91.7536 37.4279 90.8061 44.5675 90.8061C45.1899 90.8061 45.7757 90.8061 46.3616 90.8426C55.2586 89.1298 56.833 74.626 79.8627 74.626C81.0343 74.626 82.2426 74.6624 83.4874 74.7353C61.1899 75.1726 51.8535 94.2681 47.4233 94.2681C47.3135 94.2681 47.2403 94.2681 47.1304 94.2316C45.7025 93.9401 42.9565 93.8308 39.9542 93.8308C34.6453 93.8308 28.4577 94.1223 27.0297 94.1952C26.9565 95.1791 26.8101 96.1266 26.5904 97.0012C31.8261 96.7826 37.0618 96.6732 42.2243 96.6732C52.2197 96.6732 61.9222 97.0741 70.7094 97.6207C70.2334 96.0902 69.8673 94.4503 69.7574 92.7011C69.3181 85.0483 72.7231 78.5982 77.4828 78.2337C77.6293 78.2337 77.7757 78.2337 77.8856 78.2337C82.4989 78.2337 86.5629 83.9915 87.1487 91.3892C87.3684 94.0859 87.0389 96.6368 86.3799 98.8597C89.5652 99.1513 92.5309 99.4793 95.2037 99.7708C95.5698 99.5521 95.8993 99.3335 96.1922 99.1513C96.2288 99.1513 96.2288 99.1513 96.2654 99.1513C102.453 95.1791 106.554 91.2799 106.59 91.0248C95.7895 75.6099 81.7666 68.8318 69.9771 65.9893C68.0366 65.4791 64.7048 64.7503 60.0549 64.3494C51.7437 63.5842 46.032 64.5317 46.032 64.5317C46.032 64.5317 97.8032 47.3312 123.945 77.76C128.815 73.8607 140.055 62.5274 143.789 59.284C152.87 57.8628 163.231 54 163.231 54C163.231 54 148.732 72.0386 128.558 86.1051C143.13 115.04 144.265 110.375 164 108.007ZM23.3684 86.2874C22.5263 85.3034 21.5011 84.7204 20.4394 84.7204C20.3295 84.7204 20.1831 84.7204 20.0732 84.7568C17.5835 85.0848 16.0092 88.6925 16.5217 92.8104C16.7048 94.3045 17.1442 95.6529 17.7666 96.7461H19.0114C18.3524 95.6529 17.8398 94.2317 17.6201 92.6647C17.1442 88.8747 18.4989 85.595 20.6956 85.3034C20.8055 85.3034 20.9153 85.267 20.9886 85.267C21.7574 85.267 22.4897 85.6314 23.1487 86.2509H23.3684V86.2874ZM81.73 82.789C80.5217 81.3677 79.0572 80.566 77.5561 80.566C77.373 80.566 77.2265 80.566 77.0435 80.6024C73.492 81.0762 71.222 86.2145 71.9908 92.118C72.2838 94.2317 72.9062 96.1631 73.7483 97.7301H75.5057C74.5538 96.1631 73.8215 94.1588 73.5286 91.9358C72.833 86.5424 74.7735 81.8779 77.9222 81.477C78.0687 81.4406 78.2151 81.4406 78.3616 81.4406C79.4233 81.4406 80.4851 81.9508 81.4371 82.8254H81.73V82.789ZM28.4943 90.3688C31.8627 90.0044 38.6728 89.312 44.7506 89.312C44.897 89.312 45.0435 89.312 45.1899 89.312C43.8352 86.9797 42.8101 84.5382 42.4439 82.0966C35.8535 83.3356 29.7391 83.6636 25.4188 83.6636C26.8833 85.267 28.0183 87.5993 28.4943 90.3688Z" fill="black"/>
</svg>
