<svg width="120" height="37" viewBox="0 0 120 37" fill="none" xmlns="http://www.w3.org/2000/svg">
<g clip-path="url(#clip0_3050_1240)">
<path d="M0.177734 36.0354H17.5618V18.8059C13.9337 25.6701 7.14683 30.1321 0.177734 31.844C0.199823 33.1417 0.177734 36.0354 0.177734 36.0354Z" fill="#08787C"/>
<path d="M5.7334 27.371C9.79514 25.221 13.1663 21.9666 15.4581 17.9831C15.4581 17.9831 15.4581 15.9951 15.4581 15.9509C11.8143 14.7456 8.49248 12.7269 5.74444 10.0476C5.74444 14.7691 5.74444 27.371 5.74444 27.371" fill="#08787C"/>
<path d="M6.67188 1.33355V7.90505C8.0018 9.22415 9.47 10.3961 11.051 11.4006V4.34319C9.48038 3.51304 8.01404 2.49903 6.68292 1.32251" fill="#08787C"/>
<path d="M30.5939 7.34715C30.5973 7.532 30.5844 7.7168 30.5553 7.89938C30.5302 8.08989 30.456 8.27058 30.3397 8.4236C30.2235 8.57662 30.0694 8.69667 29.8926 8.77189C29.3428 8.98509 28.7457 9.04614 28.1641 8.94861V6.25926C28.7929 6.125 29.4481 6.19264 30.0362 6.45254C30.2088 6.53022 30.3539 6.65828 30.4525 6.8199C30.551 6.98152 30.5984 7.16916 30.5884 7.35819M32.4549 6.87776C32.4035 6.44363 32.2244 6.03454 31.9403 5.70227C31.6562 5.37 31.2799 5.12951 30.859 5.01123C30.3723 4.85726 29.867 4.76994 29.3569 4.75169C29.0032 4.73478 28.6487 4.74586 28.2967 4.78482C28.249 4.77934 28.2008 4.77934 28.1531 4.78482V2.71949H29.8098L31.6652 2.98456L31.737 1.32788H26.0491L26.2755 3.42082V8.09818L26.0215 10.3071H26.3473C26.3473 10.3071 27.1315 10.3071 27.5015 10.3071C27.7003 10.3071 27.9046 10.3071 28.0979 10.3347C28.3795 10.3347 28.6501 10.3678 28.9428 10.3678H29.1416C30.0473 10.3927 30.9342 10.1062 31.6542 9.55606C32.012 9.219 32.2733 8.79254 32.4111 8.32074C32.549 7.84894 32.5584 7.34889 32.4384 6.87223" fill="#111138"/>
<path d="M38.1589 6.08256C37.8607 6.08256 37.5625 6.08256 37.2533 6.08256C36.944 6.08256 36.6513 6.08256 36.3642 6.08256C36.5409 5.65183 36.7176 5.23213 36.9164 4.79588L37.3195 3.84052L38.1589 6.08256ZM38.7111 2.36056L38.4295 1.2561H36.5464L36.3255 2.23354L34.0503 8.1258L33.0674 10.2574L35.0444 10.285L35.3867 8.67803L35.8616 7.45209H38.6946L39.3407 9.00936L39.6941 10.2629H42.2454L41.3839 8.794L38.7111 2.36056Z" fill="#111138"/>
<path d="M58.1279 10.285L60.7233 10.2574L56.5927 5.57452L60.4583 1.30029H58.1831L57.5039 2.25564C57.5039 2.25564 55.7533 4.17187 54.8035 5.22662V2.91832L55.0685 1.33343H52.6829L52.8265 2.89623L52.8541 8.41849L52.6719 10.2629H55.052L54.7924 8.44058V6.23168L58.1058 10.2684L58.1279 10.285Z" fill="#111138"/>
<path d="M50.491 7.59578C50.491 6.99938 50.5241 2.9626 50.491 2.9626L50.6953 1.3501H48.3373L48.5306 2.90738V4.79599H45.2172C45.1593 3.76598 45.2429 2.7329 45.4657 1.72561L45.5541 1.36114H43.1022L43.1463 1.69248C43.1463 1.80845 43.301 3.05096 43.3231 3.63079C43.3507 4.83465 43.3231 6.06059 43.3231 7.25892V7.52399C43.3231 8.03756 43.2016 9.59484 43.1519 9.87647L43.0801 10.2244H45.4491L45.4049 9.90409C45.4049 9.69976 45.3553 9.49544 45.3332 9.28559C45.2724 8.82172 45.2227 8.37994 45.1896 7.93816C45.1564 7.49638 45.1896 7.02146 45.1896 6.57416V6.25939H48.5913V6.92758C48.6554 7.9132 48.5754 8.90289 48.3538 9.86543L48.2489 10.2354H50.7395L50.6787 9.882C50.5471 9.13461 50.4843 8.37673 50.491 7.61787" fill="#111138"/>
<path d="M79.0853 14.6972L79.157 14.3438H74.0987L74.1373 14.6751C74.3251 16.1882 74.4466 17.6129 74.5294 19.0211C74.5901 20.0317 74.5791 21.0864 74.5625 22.086C74.5625 22.4449 74.5625 22.8039 74.5625 23.1904H65.0974C65.0477 20.4293 65.0145 17.5467 65.7379 14.7414L65.8318 14.3714H60.6133L60.6575 14.7027C60.6575 14.7027 61.0495 18.1155 61.0992 19.7224C61.1931 22.8094 61.16 25.9626 61.1434 29.0164V29.7343C61.1434 31.0652 60.8231 35.113 60.6851 35.8088L60.6133 36.1567H65.6496L65.6109 35.8309C65.5447 35.2787 65.4839 34.7761 65.4121 34.2515C65.2686 33.0974 65.1139 31.9156 65.0532 30.7394C64.9924 29.5631 65.0035 28.3703 65.02 27.2162C65.02 26.7909 65.02 26.3712 65.02 25.946H74.6453C74.6453 26.6694 74.6453 27.3984 74.6453 28.1108C74.684 30.767 74.7171 33.2741 74.0269 35.7867L73.9219 36.1677H79.157L79.0853 35.8198C78.7464 33.8724 78.58 31.8988 78.5882 29.9221C78.5882 28.3096 78.5882 21.1693 78.66 19.1868C78.6869 17.6816 78.829 16.1806 79.0853 14.6972Z" fill="#111138"/>
<path d="M48.2152 33.5117V25.7805C50.634 25.8523 55.2395 26.2113 55.2948 26.2113H55.6095V22.6826L48.2152 23.1022V17.0278C50.4241 16.9946 54.5493 16.9725 56.7029 17.6462L57.0453 17.7457L57.095 17.3977C57.1793 16.4798 57.1941 15.5568 57.1392 14.6366V14.355H43.7422L43.7919 14.6974C44.1608 17.542 44.292 20.4125 44.184 23.279C44.184 23.9306 44.184 24.5767 44.184 25.2394C44.2281 29.3976 43.7643 35.7703 43.7643 35.8311V36.1514L57.0564 36.2121V35.9249C57.0895 35.2126 57.1502 33.3129 57.1779 33.0478L57.2331 32.6447L56.83 32.7276C54.008 33.2851 51.1357 33.5479 48.2594 33.5117" fill="#111138"/>
<path d="M36.8616 23.9471L37.0439 23.8367C38.2532 23.0194 39.6338 21.8155 39.7111 19.7668C39.8271 16.9339 38.2808 14.9348 35.47 14.2445C32.9389 13.684 30.3068 13.7771 27.8217 14.5151C26.5019 14.8851 26.2865 15.0066 26.3251 15.3158C26.3969 15.8681 26.5129 16.5307 26.6233 17.1603C26.7062 17.6131 26.789 18.077 26.8498 18.5243C26.8623 18.6042 26.8968 18.6791 26.9495 18.7405C27.0022 18.802 27.0709 18.8475 27.148 18.8722C27.2261 18.8948 27.3088 18.8959 27.3875 18.8755C27.4662 18.8551 27.538 18.8139 27.5953 18.7562L27.7609 18.585C28.4107 17.9119 29.2008 17.3902 30.0751 17.0571C30.9494 16.7239 31.8864 16.5876 32.8193 16.6577C33.4349 16.6545 34.0339 16.8571 34.5212 17.2333C35.0084 17.6095 35.356 18.1377 35.5087 18.7341C35.8621 20.3908 35.2712 21.8045 33.9956 22.3733C33.297 22.6649 32.5668 22.8743 31.8198 22.9973C30.997 23.1409 29.3679 23.2568 29.3458 23.2568H29.0587L29.1857 26.018H29.4728C29.4728 26.018 30.9362 25.9517 32.1511 25.9517C32.7034 25.9517 34.4484 26.0787 35.343 26.6144C35.7268 26.8342 36.0603 27.1321 36.3218 27.4888C36.5834 27.8455 36.7673 28.2531 36.8616 28.6852C37.0991 29.9222 37.3145 32.8766 34.1005 33.578C31.3394 34.1854 29.0421 33.578 27.3523 31.7556L26.8884 31.2586L26.7117 31.0764C26.6602 31.0207 26.5937 30.9812 26.5202 30.9625C26.4467 30.9439 26.3693 30.947 26.2975 30.9714C26.2269 30.9966 26.1647 31.0409 26.1179 31.0994C26.0711 31.1579 26.0415 31.2284 26.0325 31.3028L25.9496 31.982C25.8668 32.6502 25.795 33.2798 25.6901 33.8982C25.6362 34.1316 25.6665 34.3765 25.7757 34.5897C25.8848 34.8029 26.0657 34.9707 26.2865 35.0634C28.1799 36.0945 30.3045 36.6266 32.4604 36.6097C32.8856 36.6097 33.3163 36.6097 33.7471 36.5545C35.4673 36.4436 37.1135 35.814 38.4686 34.7487C40.3848 33.1804 41.2297 31.2752 41.042 29.0884C40.8156 26.5978 39.3853 24.8859 36.8395 23.9913" fill="#111138"/>
<path d="M100.577 26.6586V23.9913C100.577 20.8989 100.544 17.707 101.102 14.7084L101.163 14.355H95.9496L96.0104 14.7084C96.1871 15.6361 96.3417 16.6246 96.4687 17.6518C96.4995 17.7655 96.5004 17.8852 96.4714 17.9993C96.4424 18.1135 96.3844 18.2182 96.3031 18.3034C94.6464 20.076 93.0228 21.8763 91.46 23.6213C90.0243 25.2173 88.5553 26.8519 87.0422 28.4699C87.0754 27.1004 87.0422 25.7419 87.0422 24.411C86.9704 21.0977 86.9097 17.9113 87.7436 14.736L87.8374 14.366H82.5029L82.6134 14.7471C83.0307 16.3501 83.202 18.0073 83.1214 19.6619V21.2909C83.1214 24.1349 83.1214 27.0728 83.1214 29.9554C83.1214 30.3861 83.1214 30.8334 83.1214 31.2531C83.1609 32.0612 83.148 32.871 83.0828 33.6774C83.0167 34.1665 82.9227 34.6514 82.8011 35.1297C82.7514 35.3562 82.7017 35.5936 82.6465 35.82L82.5747 36.179H87.738L87.6883 35.8366C87.5779 35.1297 87.5061 34.4284 87.4288 33.7381C87.3901 33.335 87.3515 32.9429 87.2963 32.5398C87.2828 32.3554 87.3379 32.1726 87.4509 32.0262C88.9143 30.4413 90.3666 28.8344 91.7582 27.266C93.3431 25.5044 94.9832 23.671 96.651 21.8763V24.8749C96.651 25.8468 96.651 26.8243 96.651 27.7741C96.651 29.232 96.6841 30.7395 96.6234 32.225C96.5627 33.0532 96.4558 33.8773 96.3031 34.6935C96.2423 35.0745 96.1705 35.4556 96.1153 35.8366L96.0656 36.179H101.185L101.102 35.8532C100.55 32.965 100.55 29.7787 100.577 26.6917" fill="#111138"/>
<path d="M113.737 17.2595C113.733 17.1988 113.733 17.138 113.737 17.0773L120.319 17.9222L119.905 14.3162H103.454L103.09 17.9222L110.136 17.0773V30.8443L109.457 36.1678H114.427L113.803 30.9327C113.82 30.8443 113.753 21.7657 113.737 17.2595Z" fill="#111138"/>
</g>
<defs>
<clipPath id="clip0_3050_1240">
<rect width="120" height="36" fill="white" transform="translate(0 0.667969)"/>
</clipPath>
</defs>
</svg>
