<svg width="43" height="62" viewBox="0 0 43 62" fill="none" xmlns="http://www.w3.org/2000/svg">
<g clip-path="url(#clip0_2393_242)">
<path opacity="0.2" d="M35 58.4C35 60.4 28.8 62 21.2 62C13.6 62 7.40002 60.4 7.40002 58.4C7.40002 56.4 13.6 54.8 21.2 54.8C28.8 54.7 35 56.4 35 58.4Z" fill="#05141F"/>
<path d="M21.4 0C9.6 0 0 9.6 0 21.4C0 34 21.4 58.5 21.4 58.5C21.4 58.5 42.8 35 42.8 21.4C42.8 9.6 33.2 0 21.4 0ZM21.4 33.7C14.1 33.7 8.2 27.8 8.2 20.5C8.2 13.2 14.1 7.3 21.4 7.3C28.7 7.3 34.6 13.2 34.6 20.5C34.6 27.8 28.7 33.7 21.4 33.7Z" fill="#05141F"/>
<path d="M21.4 38.2C30.6231 38.2 38.0999 30.7232 38.0999 21.5C38.0999 12.2768 30.6231 4.8 21.4 4.8C12.1768 4.8 4.69995 12.2768 4.69995 21.5C4.69995 30.7232 12.1768 38.2 21.4 38.2Z" fill="white"/>
<path d="M7.65309 20.4842C6.7238 21.0935 6.88696 21.7817 6.90824 22.4341C6.87986 22.4126 5.44691 19.9322 10.1076 19.3873C11.9732 17.6453 13.4558 17.1937 14.5057 17.1937C15.6195 17.1937 16.2366 17.7098 16.2721 17.7457C16.2579 17.803 15.5911 18.907 10.597 19.5379C9.86636 19.6669 9.28467 19.8175 8.80938 19.968C8.94416 19.9752 9.14279 19.9824 9.39817 19.9824C10.7673 19.9824 13.7112 19.7745 16.5913 18.1901C16.8467 18.2475 17.1659 18.269 17.5064 18.269C18.4641 18.269 19.5423 18.0969 19.5423 18.0969C19.5423 18.0969 19.1025 18.5916 17.2865 18.5916C17.095 18.5916 16.8892 18.5844 16.6693 18.5773C14.2078 20.2691 10.9872 20.5487 9.10732 20.5487C8.38375 20.5487 7.85881 20.5057 7.65309 20.4842ZM36 25.6243C29.8426 29.0295 25.6359 23.5883 25.4586 23.4736C23.8908 23.2944 16.4352 28.5993 12.5053 26.5132C12.2924 26.42 10.8453 25.5239 9.80252 24.2693C11.6753 24.3195 13.47 24.3697 15.1229 24.4127C15.2789 24.5418 15.3854 24.6206 15.4137 24.6349C17.4213 26.2479 19.9822 25.4952 21.9259 24.4271C21.9188 24.4271 21.9117 24.4271 21.9046 24.4271C21.9897 24.384 22.0677 24.3339 22.1458 24.2908C18.4002 24.212 11.9945 24.0543 5 23.8392C5.77323 23.7317 6.56064 23.6456 7.34805 23.5811C7.23455 23.3159 7.15652 23.0076 7.12815 22.6707C7.05011 21.6169 7.51121 20.7279 8.15675 20.6777C8.17803 20.6777 8.19222 20.6777 8.2135 20.6777C8.83776 20.6777 9.39108 21.4591 9.46911 22.4771C9.86636 22.4269 11.4767 22.2405 12.86 22.2405C12.9805 22.2405 13.0941 22.2405 13.2076 22.2477C14.9313 21.9108 15.2364 19.0576 19.6984 19.0576C19.9254 19.0576 20.1595 19.0647 20.4007 19.0791C16.0805 19.1651 14.2716 22.9216 13.4133 22.9216C13.392 22.9216 13.3778 22.9216 13.3565 22.9144C13.0799 22.8571 12.5478 22.8356 11.9661 22.8356C10.9375 22.8356 9.73867 22.8929 9.46201 22.9073C9.44783 23.1008 9.41945 23.2872 9.37689 23.4593C10.3913 23.4162 11.4057 23.3947 12.4059 23.3947C14.3426 23.3947 16.2224 23.4736 17.9249 23.5811C17.8327 23.28 17.7618 22.9574 17.7405 22.6133C17.6554 21.1079 18.3151 19.839 19.2373 19.7673C19.2657 19.7673 19.2941 19.7673 19.3153 19.7673C20.2092 19.7673 20.9966 20.9 21.1101 22.3553C21.1526 22.8857 21.0888 23.3876 20.9611 23.8249C21.5783 23.8822 22.1529 23.9467 22.6707 24.0041C22.7416 23.9611 22.8055 23.9181 22.8622 23.8822C22.8693 23.8822 22.8693 23.8822 22.8764 23.8822C24.0753 23.1008 24.8698 22.3337 24.8769 22.2836C22.7842 19.2511 20.0673 17.9177 17.7831 17.3586C17.4071 17.2582 16.7616 17.1148 15.8606 17.036C14.2503 16.8854 13.1437 17.0718 13.1437 17.0718C13.1437 17.0718 23.1744 13.6881 28.2394 19.6741C29.1828 18.907 31.3606 16.6775 32.0842 16.0395C33.8435 15.7599 35.851 15 35.851 15C35.851 15 33.0419 18.5486 29.1332 21.3158C31.9565 27.0078 32.1764 26.0902 36 25.6243ZM8.75263 21.3516C8.58947 21.1581 8.39085 21.0433 8.18513 21.0433C8.16384 21.0433 8.13547 21.0433 8.11419 21.0505C7.63181 21.115 7.32677 21.8248 7.42609 22.6348C7.46156 22.9288 7.54668 23.194 7.66728 23.4091H7.90847C7.78078 23.194 7.68146 22.9144 7.6389 22.6062C7.54668 21.8606 7.80915 21.2154 8.23478 21.1581C8.25606 21.1581 8.27735 21.1509 8.29153 21.1509C8.4405 21.1509 8.58238 21.2226 8.71007 21.3444H8.75263V21.3516ZM20.0602 20.6634C19.8261 20.3838 19.5423 20.2261 19.2515 20.2261C19.216 20.2261 19.1876 20.2261 19.1522 20.2333C18.4641 20.3265 18.0243 21.3373 18.1732 22.4986C18.23 22.9144 18.3506 23.2944 18.5137 23.6026H18.8542C18.6698 23.2944 18.5279 22.9001 18.4712 22.4628C18.3364 21.4018 18.7124 20.4842 19.3224 20.4053C19.3508 20.3982 19.3792 20.3982 19.4076 20.3982C19.6133 20.3982 19.819 20.4985 20.0034 20.6706H20.0602V20.6634ZM9.74577 22.1545C10.3984 22.0828 11.7178 21.9466 12.8954 21.9466C12.9238 21.9466 12.9522 21.9466 12.9805 21.9466C12.7181 21.4878 12.5195 21.0075 12.4485 20.5272C11.1716 20.7709 9.98696 20.8355 9.14989 20.8355C9.43364 21.1509 9.65355 21.6097 9.74577 22.1545Z" fill="black"/>
</g>
<defs>
<clipPath id="clip0_2393_242">
<rect width="42.8" height="62" fill="white"/>
</clipPath>
</defs>
</svg>
