<svg width="512" height="197" viewBox="0 0 512 197" fill="none" xmlns="http://www.w3.org/2000/svg">
<path d="M43.8188 89.6293C28.4705 99.5881 31.1652 110.836 31.5167 121.497C31.048 121.146 7.38124 80.6078 84.357 71.7034C115.171 43.2329 139.658 35.8517 156.998 35.8517C175.392 35.8517 185.585 44.2874 186.171 44.8732C185.937 45.8105 174.924 63.8535 92.4412 74.1638C80.3734 76.2728 70.7661 78.7332 62.9162 81.1936C65.1423 81.3108 68.4229 81.4279 72.6407 81.4279C95.2531 81.4279 143.876 78.0302 191.443 52.1373C195.661 53.0746 200.934 53.4261 206.557 53.4261C222.374 53.4261 240.183 50.6142 240.183 50.6142C240.183 50.6142 232.919 58.6984 202.925 58.6984C199.762 58.6984 196.364 58.5812 192.732 58.4641C152.077 86.1144 98.8851 90.6837 67.8371 90.6837C55.8865 90.6837 47.2165 89.9808 43.8188 89.6293ZM512 173.635C410.303 229.287 340.826 140.361 337.897 138.486C312.004 135.557 188.866 222.257 123.958 188.163C120.443 186.64 96.5419 171.995 79.319 151.491C110.25 152.311 139.892 153.131 167.191 153.834C169.768 155.943 171.526 157.232 171.995 157.466C205.151 183.828 247.447 171.526 279.55 154.069C279.432 154.069 279.315 154.069 279.198 154.069C280.604 153.366 281.893 152.546 283.182 151.843C221.32 150.554 115.522 147.976 0 144.461C12.7707 142.704 25.7757 141.298 38.7808 140.243C36.9062 135.908 35.6174 130.87 35.1487 125.364C33.86 108.141 41.4755 93.6128 52.1373 92.7927C52.4888 92.7927 52.7231 92.7927 53.0746 92.7927C63.3849 92.7927 72.5236 105.563 73.8124 122.2C80.3735 121.38 106.969 118.334 129.816 118.334C131.808 118.334 133.682 118.334 135.557 118.451C164.027 112.945 169.065 66.314 242.761 66.314C246.51 66.314 250.376 66.4311 254.36 66.6654C183.008 68.0714 153.131 129.465 138.955 129.465C138.603 129.465 138.369 129.465 138.017 129.347C133.448 128.41 124.661 128.059 115.054 128.059C98.065 128.059 78.2645 128.996 73.6952 129.23C73.4609 132.394 72.9922 135.44 72.2892 138.252C89.0435 137.549 105.798 137.197 122.318 137.197C154.303 137.197 185.351 138.486 213.47 140.243C211.947 135.323 210.775 130.05 210.424 124.427C209.018 99.8224 219.914 79.0847 235.145 77.913C235.614 77.913 236.082 77.913 236.434 77.913C251.196 77.913 264.201 96.4247 266.076 120.209C266.779 128.879 265.724 137.08 263.616 144.227C273.809 145.164 283.299 146.219 291.852 147.156C293.023 146.453 294.078 145.75 295.015 145.164C295.132 145.164 295.132 145.164 295.249 145.164C315.05 132.394 328.172 119.857 328.289 119.037C293.726 69.4774 248.853 47.6851 211.127 38.5464C204.917 36.9062 194.255 34.5629 179.376 33.2741C152.78 30.8137 134.503 33.86 134.503 33.86C134.503 33.86 300.17 -21.4407 383.824 76.3899C399.407 63.8535 435.376 27.416 447.326 16.9886C476.383 12.4192 509.54 0 509.54 0C509.54 0 463.143 57.9954 398.587 103.22C445.217 196.247 448.849 181.25 512 173.635ZM61.9789 103.806C59.2842 100.643 56.0037 98.768 52.6059 98.768C52.2545 98.768 51.7858 98.768 51.4343 98.8851C43.4673 99.9396 38.4293 111.539 40.0696 124.778C40.6554 129.582 42.0613 133.917 44.0531 137.432H48.0366C45.9277 133.917 44.2874 129.347 43.5844 124.309C42.0613 112.124 46.3963 101.58 53.4261 100.643C53.7776 100.643 54.1291 100.525 54.3634 100.525C56.8238 100.525 59.167 101.697 61.276 103.689H61.9789V103.806ZM248.736 92.5583C244.87 87.989 240.183 85.4114 235.379 85.4114C234.794 85.4114 234.325 85.4114 233.739 85.5286C222.374 87.0517 215.11 103.572 217.571 122.552C218.508 129.347 220.5 135.557 223.194 140.595H228.818C225.772 135.557 223.429 129.113 222.492 121.966C220.265 104.626 226.475 89.6293 236.551 88.3405C237.02 88.2233 237.488 88.2233 237.957 88.2233C241.355 88.2233 244.752 89.8636 247.799 92.6755H248.736V92.5583ZM78.3817 116.928C89.1606 115.757 110.953 113.53 130.402 113.53C130.87 113.53 131.339 113.53 131.808 113.53C127.473 106.032 124.192 98.1822 123.021 90.3323C101.931 94.3158 82.3652 95.3702 68.54 95.3702C73.2265 100.525 76.8586 108.024 78.3817 116.928Z" fill="black"/>
</svg>
