<svg width="155" height="32" fill="none" xmlns="http://www.w3.org/2000/svg"><g clip-path="url(#clip0_1119_184)"><path d="M16.4219 20.7736C15.1912 20.7938 13.9808 20.3893 12.9922 19.6206C12.0238 18.852 11.3379 17.7597 11.0958 16.546C10.9949 15.9999 10.9546 15.4335 10.9546 14.8672V9.79004H14.6062V14.8267C14.6062 15.1706 14.6465 15.5144 14.6869 15.8583C14.8079 16.2224 15.05 16.5258 15.3526 16.7483C15.6552 16.9708 16.0385 17.0922 16.4219 17.0922C16.8052 17.0922 17.1885 16.9708 17.4911 16.7483C17.7937 16.5258 18.0358 16.2022 18.1569 15.8583C18.1972 15.5144 18.2376 15.1706 18.2376 14.8267V9.79004H21.8891V14.8267C21.8891 15.3931 21.8488 15.9392 21.7479 16.5056C21.4856 17.7192 20.8199 18.8115 19.8515 19.5802C18.8831 20.3488 17.6727 20.7534 16.4219 20.7331" fill="#0054E6"></path><path d="M16.402 26.2149C13.9407 26.2149 11.5399 25.4058 9.56285 23.909C7.60593 22.4324 6.25424 20.2882 5.77006 17.8609C5.56831 16.6271 5.46744 15.3729 5.44727 14.1391V4.89507H9.09883V14.1391C9.11901 15.1707 9.19971 16.2023 9.3611 17.2137C9.78476 18.7509 10.7128 20.1062 11.9838 21.0771C13.2548 22.048 14.8082 22.574 16.402 22.574C17.9958 22.574 19.5492 22.048 20.8202 21.0771C22.0912 20.1062 23.0192 18.7509 23.4428 17.2137C23.6042 16.2023 23.6849 15.1707 23.7051 14.1391V0H27.3567V14.1188C27.3365 15.3729 27.2356 16.6068 27.0541 17.8407C26.5699 20.2478 25.2182 22.4121 23.2613 23.8887C21.3044 25.3856 18.9036 26.1947 16.4221 26.1947" fill="#0054E6"></path><path d="M16.4018 31.737C12.7099 31.737 9.09866 30.5234 6.1532 28.2781C3.22791 26.0733 1.21046 22.8571 0.484186 19.2769C0.18157 17.3552 0.0201744 15.4336 0 13.4918V0H3.65157V13.4311C3.67174 15.1504 3.81296 16.8698 4.09541 18.5689C5.1243 23.9697 10.4302 28.0354 16.4018 28.0354C22.3734 28.0354 27.6793 23.9292 28.7082 18.5689C28.9705 16.8698 29.1117 15.1504 29.1318 13.4311V4.89507H32.7834V13.4311C32.7632 15.3729 32.6018 17.3148 32.2992 19.2162C31.573 22.8167 29.5757 26.0126 26.6504 28.2174C23.7049 30.4627 20.0937 31.6764 16.4018 31.6764" fill="#0054E6"></path><path d="M45.0294 27.4687C45.3522 27.3069 45.6951 27.2057 46.0583 27.226C46.3407 27.226 46.603 27.2664 46.8653 27.3878C47.1275 27.4889 47.3494 27.671 47.531 27.8732L48.1968 27.2664C47.9345 26.963 47.6117 26.7405 47.2486 26.5787C46.8653 26.4168 46.4416 26.3359 46.0179 26.3359C45.4934 26.3359 44.9689 26.4573 44.5048 26.7C44.0812 26.9428 43.718 27.3069 43.476 27.7316C43.2742 28.0553 43.1532 28.4194 43.0926 28.7835C43.0321 29.1678 43.0523 29.5319 43.1532 29.896C43.254 30.2601 43.4154 30.604 43.6575 30.9074C43.8794 31.2108 44.1821 31.4535 44.5048 31.6356C44.9689 31.8783 45.4732 31.9997 45.9978 31.9997C46.4214 31.9997 46.8451 31.9187 47.2284 31.7569C47.5915 31.6153 47.9143 31.3726 48.1766 31.0692L47.5108 30.4421C47.3293 30.6444 47.1073 30.8265 46.8451 30.9276C46.5828 31.049 46.3205 31.0894 46.0381 31.0894C45.675 31.0894 45.332 31.0085 45.0092 30.8467C44.7066 30.6849 44.4645 30.4421 44.3031 30.1589C44.1417 29.8555 44.0408 29.5117 44.0408 29.1678C44.0408 28.8239 44.1215 28.4801 44.3031 28.1766C44.4645 27.8935 44.7066 27.6507 45.0092 27.4889" fill="#0054E6"></path><path d="M50.4966 27.2668H52.3123V31.8989H53.321V27.2668H55.1367V26.4172H50.4966V27.2668Z" fill="#0054E6"></path><path d="M61.2899 29.2081C60.9873 29.4104 60.6242 29.5115 60.261 29.4913H59.0707V27.246H60.261C60.6242 27.2056 60.9873 27.3067 61.2899 27.5292C61.3908 27.6304 61.4917 27.7517 61.5522 27.8933C61.6127 28.0349 61.6329 28.1765 61.6329 28.3383C61.6329 28.5002 61.5925 28.6417 61.5522 28.7833C61.4917 28.9249 61.411 29.0463 61.2899 29.1474V29.2081ZM61.5522 26.6392C61.1689 26.4774 60.7452 26.3965 60.3215 26.3965H58.062V31.8782H59.0909V30.3409H60.3215C60.7452 30.3611 61.1689 30.2802 61.5522 30.0981C61.8952 29.9565 62.1776 29.734 62.3793 29.4104C62.5609 29.107 62.6618 28.7429 62.6618 28.3788C62.6618 28.0147 62.5609 27.6708 62.3793 27.3472C62.1776 27.0438 61.8952 26.8213 61.5522 26.6594" fill="#0054E6"></path><path d="M66.7774 29.8357L67.8063 27.4488L68.8352 29.8357H66.7774ZM67.3221 26.4172L64.8608 31.8989H65.8897L66.4344 30.6448H69.1782L69.7229 31.8989H70.7518L68.2703 26.4172H67.3221Z" fill="#0054E6"></path><path d="M78.075 26.4172H76.8847L75.5936 28.2377L74.3024 26.4172H73.1323L74.9883 29.0873L73.0112 31.8989H74.1612L75.5936 29.8964L77.0259 31.8989H78.2364L76.2391 29.0468L78.075 26.4172Z" fill="#0054E6"></path><path d="M85.2169 30.1589C85.0555 30.4421 84.8134 30.6849 84.531 30.8467C84.2284 31.0085 83.8854 31.0894 83.5425 31.0894C83.1995 31.0894 82.8565 31.0085 82.5539 30.8467C82.2715 30.6849 82.0294 30.4421 81.868 30.1589C81.7066 29.8555 81.6259 29.5117 81.6259 29.1678C81.6259 28.8239 81.7066 28.4801 81.868 28.1766C82.0294 27.8935 82.2715 27.6507 82.5539 27.4889C82.8565 27.3271 83.1995 27.2462 83.5425 27.2462C83.8854 27.2462 84.2284 27.3271 84.531 27.4889C84.8134 27.6507 85.0555 27.8935 85.2169 28.1766C85.3783 28.4801 85.4792 28.8239 85.4792 29.1678C85.459 29.5319 85.3783 29.8555 85.2169 30.1589ZM85.0354 26.7C84.5512 26.4573 84.0266 26.3359 83.5021 26.3359C82.9776 26.3359 82.4329 26.4573 81.9688 26.7C81.5452 26.9428 81.1821 27.3069 80.94 27.7316C80.6777 28.1766 80.5566 28.6621 80.5566 29.1678C80.5566 29.6735 80.6979 30.1792 80.94 30.604C81.1821 31.0287 81.5452 31.3928 81.9688 31.6356C82.453 31.8783 82.9776 31.9997 83.5021 31.9997C84.0468 31.9997 84.5714 31.8783 85.0354 31.6356C85.4792 31.3928 85.8423 31.049 86.1046 30.604C86.3669 30.1792 86.5081 29.6735 86.5081 29.1678C86.5081 28.6621 86.3669 28.1766 86.1046 27.7316C85.8423 27.3069 85.4792 26.9428 85.0354 26.7Z" fill="#0054E6"></path><path d="M92.0355 31.1302H90.4618V29.512H92.0355C92.7617 29.512 93.1249 29.775 93.1249 30.3211C93.1249 30.8471 92.7617 31.11 92.0355 31.11V31.1302ZM90.4618 27.2263H91.8337C92.096 27.2061 92.3582 27.2668 92.6003 27.4286C92.681 27.5095 92.7617 27.5904 92.8021 27.6916C92.8424 27.7927 92.8626 27.8938 92.8626 28.0152C92.8626 28.1163 92.8424 28.2377 92.8021 28.3388C92.7617 28.44 92.681 28.5209 92.6003 28.6018C92.3784 28.7434 92.1162 28.8243 91.8337 28.8041H90.4618V27.2263ZM93.0643 29.0468C93.3064 28.9457 93.5284 28.7839 93.6696 28.5613C93.8108 28.3388 93.8713 28.0759 93.8713 27.8129C93.8713 27.6107 93.831 27.4084 93.7301 27.2263C93.6292 27.0443 93.5082 26.9027 93.3468 26.7813C92.9231 26.5184 92.4188 26.3768 91.9144 26.4172H89.4531V31.8989H92.0556C92.6003 31.9394 93.145 31.7978 93.6091 31.5146C93.7906 31.3932 93.9117 31.2112 94.0125 31.0089C94.1134 30.8066 94.1538 30.6043 94.1336 30.3818C94.1336 30.0784 94.0529 29.775 93.8512 29.5323C93.6494 29.2895 93.367 29.1277 93.0442 29.0468" fill="#0054E6"></path><path d="M98.3301 29.8357L99.359 27.4488L100.388 29.8357H98.3301ZM98.8749 26.4172L96.4136 31.8989H97.4425L97.9872 30.6448H100.731L101.276 31.8989H102.305L99.823 26.4172H98.8749Z" fill="#0054E6"></path><path d="M109.063 28.6827H106.218V26.4172H105.209V31.8989H106.218V29.5525H109.063V31.8989H110.072V26.4172H109.063V28.6827Z" fill="#0054E6"></path><path d="M114.772 30.3009V26.4172H113.764V31.8989H114.712L117.657 28.0152V31.8989H118.666V26.4172H117.718L114.772 30.3009Z" fill="#0054E6"></path><path d="M123.387 27.2668V28.6827H126.03V29.5323H123.387V31.0493H126.05V31.8989H122.358V26.4172H126.05V27.2668H123.387Z" fill="#0054E6"></path><path d="M61.7338 15.555C61.3505 16.3035 60.7655 16.9305 60.0594 17.3553C59.3331 17.7598 58.5059 17.9823 57.6788 17.9823C56.8516 17.9823 56.0245 17.7598 55.2982 17.3553C54.5719 16.9305 54.007 16.3035 53.6237 15.555C53.2202 14.7257 53.0185 13.8155 53.0185 12.9052C53.0185 11.995 53.2202 11.0847 53.6237 10.2554C54.007 9.50699 54.5921 8.87994 55.2982 8.45516C55.8429 8.13152 56.428 7.90902 57.0534 7.82811C57.6788 7.7472 58.3042 7.78765 58.9094 7.94947C59.5146 8.11129 60.0795 8.41471 60.5637 8.79903C61.0479 9.18335 61.4514 9.68904 61.7338 10.2352C62.1373 11.0645 62.3391 11.9748 62.3391 12.885C62.3592 13.8155 62.1373 14.7257 61.7338 15.555ZM61.9961 5.68398C60.6848 4.97602 59.1919 4.63215 57.6989 4.65238C56.3674 4.63215 55.0763 4.91534 53.8658 5.48171C52.736 6.00763 51.7273 6.7965 50.9809 7.78765C50.2142 8.7788 49.6897 9.93177 49.4678 11.1859H47.3293V4.93557H43.6777V20.8142H47.3293V14.3414H49.3871C49.5888 15.6157 50.0932 16.8294 50.8598 17.861C51.6265 18.8724 52.615 19.7017 53.7649 20.2276C54.9754 20.8142 56.3271 21.0974 57.6788 21.0772C59.1717 21.1176 60.6444 20.7535 61.9759 20.0456C63.2267 19.3578 64.2556 18.3464 64.9819 17.1126C65.688 15.818 66.0713 14.3818 66.0713 12.9052C66.0713 11.4286 65.688 9.99246 64.9819 8.69789C64.2758 7.46401 63.2267 6.45263 61.9759 5.7649" fill="#0054E6"></path><path d="M73.556 7.86896H81.1214L81.1416 4.89551H69.9448V20.7539H73.5964L73.556 7.86896Z" fill="#0054E6"></path><path d="M87.6778 10.1944C88.1015 9.446 88.7067 8.81894 89.4532 8.39416C90.24 7.96938 91.1277 7.74688 92.0153 7.74688C92.903 7.74688 93.7907 7.96938 94.5775 8.39416C95.3239 8.81894 95.9292 9.446 96.3528 10.1944C96.7765 11.0035 96.9984 11.9138 96.9984 12.824C96.9984 13.7342 96.7765 14.6445 96.3528 15.4536C95.9493 16.202 95.3239 16.8291 94.5775 17.2538C93.7907 17.6786 92.903 17.9213 92.0153 17.9213C91.1277 17.9213 90.24 17.6988 89.4532 17.2538C88.7067 16.8291 88.0813 16.2222 87.6778 15.4536C87.2542 14.6445 87.0322 13.7342 87.0322 12.824C87.0322 11.9138 87.2542 11.0035 87.6778 10.1944ZM91.9952 21.0162C93.5486 21.0566 95.0617 20.6925 96.4335 19.9846C97.7247 19.2968 98.8141 18.2652 99.5606 17.0111C100.307 15.757 100.711 14.3208 100.711 12.8442C100.711 11.3676 100.307 9.93146 99.5606 8.67735C98.8141 7.42324 97.7247 6.39163 96.4335 5.7039C95.0617 4.99593 93.5284 4.63184 91.975 4.63184C90.4215 4.63184 88.9085 4.99593 87.5164 5.7039C86.2454 6.37141 85.1762 7.40301 84.4499 8.63689C83.7236 9.91123 83.3403 11.3676 83.3403 12.8442C83.3403 14.3208 83.7236 15.757 84.4499 17.0516C85.1762 18.2854 86.2454 19.317 87.5164 19.9846C88.9286 20.7127 90.4619 21.0566 91.9952 21.0162Z" fill="#0054E6"></path><path d="M113.602 12.6621C112.876 13.188 111.988 13.4308 111.08 13.3701H108.095V7.86817H111.06C111.948 7.80749 112.856 8.05022 113.582 8.57614C113.864 8.8391 114.107 9.14251 114.248 9.50661C114.389 9.8707 114.47 10.255 114.429 10.6393C114.45 11.0237 114.389 11.408 114.248 11.7519C114.107 12.116 113.885 12.4194 113.602 12.6621ZM117.334 13.6937C117.778 13.0262 118.081 12.2576 118.202 11.4687C118.323 10.6798 118.262 9.85048 118.041 9.08183C117.819 8.31318 117.415 7.58499 116.87 6.99839C116.346 6.39156 115.68 5.92633 114.934 5.60269C113.784 5.11723 112.533 4.8745 111.282 4.89472H104.423V20.7734H108.095V16.384H111.282C112.533 16.4042 113.784 16.1817 114.934 15.676C115.922 15.2715 116.749 14.5837 117.334 13.6937Z" fill="#0054E6"></path><path d="M137.065 20.7534V4.87476H133.615L126.05 15.2313V4.87476H122.398V20.7534H125.868L133.433 10.4373V20.7534H137.065Z" fill="#0054E6"></path><path d="M151.368 13.633H148.141C147.293 13.6937 146.466 13.4308 145.82 12.8846C145.538 12.6014 145.336 12.2778 145.195 11.8935C145.054 11.5091 144.993 11.1248 145.034 10.7405C145.014 10.3359 145.074 9.95161 145.215 9.56729C145.356 9.20319 145.578 8.85932 145.861 8.59637C146.547 8.07045 147.394 7.80749 148.241 7.86817H151.368V13.633ZM148.141 4.89472C146.89 4.8745 145.659 5.11723 144.529 5.60269C143.541 6.02747 142.714 6.75566 142.149 7.6659C141.564 8.61659 141.281 9.70888 141.301 10.8214C141.261 11.9541 141.564 13.0464 142.169 13.9971C142.774 14.9074 143.621 15.5951 144.63 15.9794L141.322 20.7734H145.195L147.999 16.5458H151.368V20.7734H155V4.89472H148.141Z" fill="#0054E6"></path></g><defs><clipPath id="clip0_1119_184"><rect width="155" height="32" fill="white"></rect></clipPath></defs></svg>