<svg width="97" height="48" viewBox="0 0 97 48" fill="none" xmlns="http://www.w3.org/2000/svg">
<circle cx="13.9993" cy="24" r="14" fill="white"/>
<path fill-rule="evenodd" clip-rule="evenodd" d="M13.9993 38C21.7313 38 27.9993 31.732 27.9993 24C27.9993 16.268 21.7313 10 13.9993 10C6.26734 10 -0.000671387 16.268 -0.000671387 24C-0.000671387 31.732 6.26734 38 13.9993 38ZM22.1159 27.7282L15.7876 17.7437C14.9562 16.4319 13.0424 16.4319 12.211 17.7437L5.8828 27.7282C5.30523 28.6395 5.57575 29.8464 6.48702 30.424C7.39829 31.0015 8.60522 30.731 9.18279 29.8198L13.9993 22.2203L18.8159 29.8198C19.3934 30.731 20.6004 31.0015 21.5116 30.424C22.4229 29.8464 22.6934 28.6395 22.1159 27.7282Z" fill="#1E60FC"/>
<path d="M38.9447 19.8C39.3915 18.14 40.8943 17 42.6408 17H49.6268C49.8908 17 50.1142 17.2 50.1142 17.46V30.54C50.1142 30.8 49.8908 31 49.6268 31H47.7381C47.4741 31 47.2711 30.8 47.2711 30.54V20.26C47.2711 20 47.0477 19.8 46.7837 19.8H42.3565C42.0722 19.8 41.8285 19.98 41.7675 20.26L38.965 30.54C38.8838 30.82 38.6401 31 38.3558 31H36.3655C36.2437 31 36.1422 30.94 36.0812 30.86C36 30.78 35.9797 30.66 36.0203 30.54L38.9447 19.8Z" fill="black"/>
<path d="M51.7468 28.2V19.8C51.7468 18.26 53.0262 17 54.5899 17H63.1194C64.6831 17 65.9625 18.26 65.9625 19.8V28.2C65.9625 29.74 64.6831 31 63.1194 31H54.5899C53.0262 31 51.7468 29.74 51.7468 28.2ZM55.057 28.2H62.6523C62.9163 28.2 63.1194 28 63.1194 27.74V20.26C63.1194 20 62.9163 19.8 62.6523 19.8H55.057C54.793 19.8 54.5899 20 54.5899 20.26V27.74C54.5899 28 54.793 28.2 55.057 28.2Z" fill="black"/>
<path d="M67.9894 30.54V17.46C67.9894 17.2 68.1925 17 68.4565 17H70.3655C70.6295 17 70.8326 17.2 70.8326 17.46V22.14C70.8326 22.4 71.0356 22.6 71.2996 22.6H73.0665C73.3711 22.6 73.6554 22.48 73.8382 22.24L78.1435 17.36C78.3263 17.12 78.6106 17 78.9152 17H81.7381C81.8193 17 81.9005 17.04 81.9208 17.12C81.9615 17.2 81.9411 17.28 81.9005 17.36L76.3767 23.64C76.1939 23.84 76.1939 24.16 76.3767 24.36L81.9005 30.64C81.9411 30.72 81.9615 30.8 81.9208 30.88C81.9005 30.96 81.8193 31 81.7381 31H78.9152C78.6106 31 78.3263 30.88 78.1435 30.64L73.8382 25.76C73.6554 25.52 73.3711 25.4 73.0665 25.4H71.2996C71.0356 25.4 70.8326 25.6 70.8326 25.86V30.54C70.8326 30.8 70.6295 31 70.3655 31H68.4565C68.1925 31 67.9894 30.8 67.9894 30.54Z" fill="black"/>
<path d="M82.7842 28.2V19.8C82.7842 18.26 84.0637 17 85.6274 17H94.1568C95.7206 17 97 18.26 97 19.8V28.2C97 29.74 95.7206 31 94.1568 31H85.6274C84.0637 31 82.7842 29.74 82.7842 28.2ZM86.0945 28.2H93.6898C93.9538 28.2 94.1568 28 94.1568 27.74V20.26C94.1568 20 93.9538 19.8 93.6898 19.8H86.0945C85.8305 19.8 85.6274 20 85.6274 20.26V27.74C85.6274 28 85.8305 28.2 86.0945 28.2Z" fill="black"/>
</svg>
